<?xml version="1.0" encoding="UTF-8"?>
<svg xmlns="http://www.w3.org/2000/svg" viewBox="0 0 24 24" width="24" height="24">
  <path fill="#3d59db" d="M4,15.5C4,17.43 5.57,19 7.5,19L6,20.5v0.5h12v-0.5L16.5,19c1.93,0 3.5,-1.57 3.5,-3.5V5c0,-3.5 -3.58,-4 -8,-4s-8,0.5 -8,4v10.5zM12,3c4.83,0 6,0.65 6,2h-12c0,-1.35 1.17,-2 6,-2zM12,13.5c-1.1,0 -2,-0.9 -2,-2s0.9,-2 2,-2 2,0.9 2,2 -0.9,2 -2,2zM6,11.5c-1.1,0 -2,-0.9 -2,-2s0.9,-2 2,-2 2,0.9 2,2 -0.9,2 -2,2zM18,11.5c-1.1,0 -2,-0.9 -2,-2s0.9,-2 2,-2 2,0.9 2,2 -0.9,2 -2,2z" />
</svg>